<?xml version="1.0" ?><svg viewBox="0 0 512 512" xmlns="http://www.w3.org/2000/svg"><defs><style>.cls-1{fill:#0071af;}.cls-2{fill:#bdecdc;}.cls-3{fill:#a1c9bc;}.cls-4{fill:#59cea7;}.cls-5{fill:#4cb08e;}.cls-6{fill:#31c292;}.cls-7{fill:#338dbf;}.cls-8{fill:#353535;}.cls-9{fill:#cbe2ef;}.cls-10{fill:#2c78a3;}.cls-11{fill:#2d2d2d;}</style></defs><title/><g data-name="/ FILLED_OUTLINE" id="_FILLED_OUTLINE"><rect class="cls-1" height="344" rx="32" width="408" x="24" y="144"/><path class="cls-2" d="M427.31372,75.31372,380.68628,28.68628A15.99983,15.99983,0,0,0,369.37256,24H192a16,16,0,0,0-16,16V224H432V86.62738A16.0002,16.0002,0,0,0,427.31372,75.31372Z"/><path class="cls-3" d="M425.53516,73.53546C403.69019,155.5636,328.90857,216,240,216H431.99976V86.62738a16.00024,16.00024,0,0,0-4.68628-11.31366Z"/><rect class="cls-4" height="16" width="40" x="368" y="136"/><rect class="cls-5" height="16" width="40" x="368" y="176"/><path class="cls-4" d="M427.31372,75.31372,380.68628,28.68628A15.99983,15.99983,0,0,0,369.37256,24H368V64a16,16,0,0,0,16,16h46.5437A15.97829,15.97829,0,0,0,427.31372,75.31372Z"/><path class="cls-4" d="M363.31372,75.31372,316.68628,28.68628A15.99983,15.99983,0,0,0,305.37256,24H128a16,16,0,0,0-16,16V224H368V86.62738A16.0002,16.0002,0,0,0,363.31372,75.31372Z"/><rect class="cls-2" height="16" width="160" x="136" y="96"/><rect class="cls-2" height="16" width="208" x="136" y="136"/><rect class="cls-2" height="16" width="208" x="136" y="176"/><rect class="cls-2" height="16" width="144" x="136" y="56"/><path class="cls-6" d="M363.31372,75.31372,316.68628,28.68628A15.99983,15.99983,0,0,0,305.37256,24H304V64a16,16,0,0,0,16,16h46.5437A15.97829,15.97829,0,0,0,363.31372,75.31372Z"/><path class="cls-7" d="M440,216H120a32,32,0,0,0-32,32V456a32,32,0,0,1-32,32H440a32,32,0,0,0,32-32V248A32,32,0,0,0,440,216Z"/><path class="cls-8" d="M455.99963,379.56592V356.43408l-22.1-5.29883c-3.09375-7.46606-4.274-10.31421-7.36792-17.78027l11.91907-19.45044c-8.83985-8.83984-7.51551-7.5155-16.35535-16.35547l-19.45081,11.91907-17.78015-7.368L379.56555,280H356.43384l-5.29895,22.09985c-7.46594,3.09388-10.31433,4.27417-17.78015,7.36792L313.9043,297.54883c-8.84,8.83984-7.51563,7.5155-16.35547,16.35534L309.46777,333.355c-3.09375,7.46582-4.27417,10.31421-7.36792,17.78l-22.10009,5.29907v23.13184l22.09985,5.29883c3.09375,7.46606,4.27417,10.31421,7.36792,17.78027l-11.91895,19.45044c8.83973,8.83984,7.51538,7.5155,16.35523,16.35547l19.4508-11.919c7.466,3.09375,10.31434,4.27405,17.78016,7.36792L356.43384,456h23.13159l5.29907-22.09985c7.46582-3.09388,10.31421-4.27417,17.78015-7.36792L422.095,438.45117c8.84-8.83984,7.51563-7.5155,16.35547-16.35534L426.53149,402.645c3.09388-7.46582,4.27417-10.31421,7.36792-17.78ZM368,400a32,32,0,1,1,32-32A32,32,0,0,1,368,400Z"/><path class="cls-9" d="M250.65381,419.20264a128.12772,128.12772,0,0,1,66.14307-168.54883l6.40624,14.66211a112.12661,112.12661,0,0,0-57.8872,147.48144Z"/><path class="cls-9" d="M338.12891,260.02539l-4.25782-15.42285a127.84568,127.84568,0,0,1,17.07276-3.4751l2.1123,15.86035A111.73415,111.73415,0,0,0,338.12891,260.02539Z"/><path class="cls-10" d="M200,488H439.99976a32.00018,32.00018,0,0,0,32-32V248a32.03994,32.03994,0,0,0-1.05219-8.15479C458.86774,378.897,342.18488,488,200,488Z"/><path class="cls-5" d="M361.5354,73.53546C339.69043,155.5636,264.90881,216,176.00024,216H368V86.62738a16.0002,16.0002,0,0,0-4.68628-11.31366Z"/><path class="cls-3" d="M344,152V136H331.94482a192.90661,192.90661,0,0,1-12.84912,16Z"/><path class="cls-3" d="M269.00061,192H344V176H293.29883A192.239,192.239,0,0,1,269.00061,192Z"/><path class="cls-5" d="M408,152V136H395.94458a192.90867,192.90867,0,0,1-12.84912,16Z"/><path class="cls-11" d="M352.83789,441.00293,356.43384,456h23.13159l5.29907-22.09985c7.46582-3.09388,10.31421-4.27417,17.78015-7.36792L422.095,438.45117c8.84-8.83984,7.51563-7.5155,16.35547-16.35534L426.53149,402.645c3.09388-7.46582,4.27417-10.31421,7.36792-17.78l22.10022-5.29907V356.43408l-20.19226-4.84143A273.34146,273.34146,0,0,1,352.83789,441.00293Z"/><path class="cls-9" d="M419.20312,485.34619l-6.40624-14.66211a112.12475,112.12475,0,0,0,57.88671-147.481l14.66211-6.40624a128.127,128.127,0,0,1-66.14258,168.54931Z"/><path class="cls-9" d="M385.05713,494.87256l-2.11426-15.85938a111.88686,111.88686,0,0,0,14.92822-3.03857l4.25782,15.42285A127.8623,127.8623,0,0,1,385.05713,494.87256Z"/><path d="M96,456V248a24.0275,24.0275,0,0,1,24-24H440a24.0275,24.0275,0,0,1,24,24v48h16V248a40.04521,40.04521,0,0,0-40-40V86.62744a23.843,23.843,0,0,0-7.02979-16.9707l-46.627-46.62695A23.843,23.843,0,0,0,369.37256,16H128a24.0275,24.0275,0,0,0-24,24v96H56a40.04521,40.04521,0,0,0-40,40V456a40.04521,40.04521,0,0,0,40,40H368V480H87.97815A39.79083,39.79083,0,0,0,96,456ZM376,35.31348,412.68652,72H384a8.00917,8.00917,0,0,1-8-8ZM376,192h32V176H376V152h32V136H376V86.6239A23.88475,23.88475,0,0,0,384,88h40V208H376ZM360,32V60.68652L331.31348,32Zm-48,3.31348L348.68652,72H320a8.00917,8.00917,0,0,1-8-8ZM120,40a8.00917,8.00917,0,0,1,8-8H296V64a24.02687,24.02687,0,0,0,24,24h40V208H120ZM80,456a24,24,0,0,1-48,0V176a24.0275,24.0275,0,0,1,24-24h48v59.34991A40.05181,40.05181,0,0,0,80,248Z"/><path d="M463.99951,385.87451v-35.749l-24.27-5.81934-4.24658-10.24756,13.084-21.35107-25.27343-25.27441-21.35254,13.084-10.24707-4.24658L385.874,272H350.125l-5.81934,24.27-10.24755,4.24658-21.35108-13.084L287.43262,312.707l13.084,21.35156L296.27,344.30615l-24.27051,5.81934v35.749l24.27,5.81934,4.24658,10.24756-13.084,21.35107,25.27441,25.27441,21.35157-13.084,10.24755,4.24658L350.125,464h35.749l5.81934-24.27,10.24756-4.24658,21.35156,13.084L448.56689,423.293l-13.084-21.35156,4.24658-10.24756Zm-35.665,35.02393L420.898,428.335l-17.54981-10.75391-25.313,10.48877L373.25684,448H362.74219l-4.77832-19.92969-25.313-10.48974-17.54981,10.7539-7.43652-7.43652,10.75391-17.54932-10.48926-25.313-19.92969-4.77832V362.74268l19.92969-4.77832,10.48975-25.313L307.665,315.10156l7.43652-7.43652L332.65039,318.419l25.31348-10.48926L362.74219,288h10.51465l4.7788,19.93018,25.3125,10.48925,17.54981-10.7539,7.43652,7.43652-10.7539,17.54932,10.48925,25.313,19.92969,4.77832v10.51464l-19.92969,4.77832-10.48925,25.313Z"/><path d="M368,328a40,40,0,1,0,40,40A40.04521,40.04521,0,0,0,368,328Zm0,64a24,24,0,1,1,24-24A24.0275,24.0275,0,0,1,368,392Z"/><rect height="16" width="160" x="136" y="96"/><rect height="16" width="208" x="136" y="136"/><rect height="16" width="208" x="136" y="176"/><path d="M323.20312,265.31592l-6.40624-14.66211a128.12772,128.12772,0,0,0-66.14307,168.54883l14.66211-6.40528a112.12661,112.12661,0,0,1,57.8872-147.48144Z"/><path d="M353.05615,256.98779l-2.1123-15.86035a127.84568,127.84568,0,0,0-17.07276,3.4751l4.25782,15.42285A111.73415,111.73415,0,0,1,353.05615,256.98779Z"/><path d="M485.3457,316.79688l-14.66211,6.40624a112.12475,112.12475,0,0,1-57.88671,147.481l6.40624,14.66211A128.127,128.127,0,0,0,485.3457,316.79688Z"/><path d="M382.94287,479.01318l2.11426,15.85938a127.8623,127.8623,0,0,0,17.07178-3.4751l-4.25782-15.42285A111.88686,111.88686,0,0,1,382.94287,479.01318Z"/><rect height="16" width="144" x="136" y="56"/></g></svg>